<?xml version="1.0" encoding="utf-8"?>
<!-- Generator: Adobe Illustrator 25.0.1, SVG Export Plug-In . SVG Version: 6.00 Build 0)  -->
<svg version="1.1" id="Layer_1" xmlns="http://www.w3.org/2000/svg" xmlns:xlink="http://www.w3.org/1999/xlink" x="0px" y="0px"
	 viewBox="0 0 670.94 284.22" style="enable-background:new 0 0 670.94 284.22;" xml:space="preserve">
<style type="text/css">
	.st0{clip-path:url(#SVGID_2_);fill:url(#SVGID_3_);}
	.st1{clip-path:url(#SVGID_5_);fill:url(#SVGID_6_);}
	.st2{fill-rule:evenodd;clip-rule:evenodd;fill:#00C0F3;}
	.st3{fill-rule:evenodd;clip-rule:evenodd;fill:#005984;}
	.st4{fill:none;stroke:#00C0F3;stroke-width:8.4398;stroke-linecap:round;stroke-miterlimit:3.8637;}
	.st5{fill:#3AA0D9;}
	.st6{fill:#3AA0D9;stroke:#3AA0DA;stroke-width:2;stroke-miterlimit:10;}
</style>
<g id="Background">
</g>
<g id="Guides">
</g>
<g id="Foreground">
</g>
<g id="Frente">
</g>
<g id="vinhos">
</g>
<g id="Layer-1">
	<g>
		<g>
			<g>
				<defs>
					<circle id="SVGID_1_" cx="117.01" cy="117.01" r="117.01"/>
				</defs>
				<clipPath id="SVGID_2_">
					<use xlink:href="#SVGID_1_"  style="overflow:visible;"/>
				</clipPath>
				
					<radialGradient id="SVGID_3_" cx="147.633" cy="149.9178" r="119.2173" gradientTransform="matrix(1 0 0 -1 0 297.192)" gradientUnits="userSpaceOnUse">
					<stop  offset="0" style="stop-color:#8ED8F8"/>
					<stop  offset="0.6" style="stop-color:#00608A"/>
				</radialGradient>
				<path class="st0" d="M57.05,206.95c0.56-0.59,1.18-0.68,2.22,0.2c1.04,0.88,1.43,2.08,0.86,2.67s-1.86,0.35-2.9-0.53
					C56.18,208.4,56.48,207.54,57.05,206.95z M188.57,101.99c0,0,21.89,5.58,34.11,33.03c12.23,27.45,12.99,33.95,12.99,33.95
					l-55.78,61.01l-74.09,9.22c0,0,3.96-4.52,0.85-15.62c-3.11-11.09-19.62-14.72-24.17-23.03c-6.01-10.99-1.82-36.32,17.12-36.49
					c16.21-0.15,28.97-4.93,48.98-16.26C176.67,131.91,188.57,101.99,188.57,101.99z M71.19,212.89c0.25-4.69,8.63-2.24,12.65-0.29
					c4.33,2.1,21.61,15.54,10.66,15.78C82.17,228.63,70.95,217.58,71.19,212.89z M69.7,184.39c-1.08-2.98-1.18-4.27,0.36-5.49
					c2.25-1.78,6.26-0.29,7.34,2.69c1.08,2.98,1.04,5.18-1.66,6.16C73.05,188.73,70.79,187.36,69.7,184.39z M65.67,195.45
					c0.75-1.25,3.14-1.19,5.34,0.13c2.2,1.32,2.33,2.67,1.58,3.92c-0.75,1.25-2.1,1.93-4.3,0.61
					C66.09,198.79,64.92,196.7,65.67,195.45z M53.05,190.23c0.73-0.57,1.41-0.55,2.35,0.65c0.94,1.21,1.12,2.65,0.39,3.21
					c-0.72,0.57-2.08,0.05-3.02-1.16C51.83,191.73,52.33,190.79,53.05,190.23z"/>
			</g>
			<g>
				<defs>
					<circle id="SVGID_4_" cx="117.01" cy="117.01" r="117.01"/>
				</defs>
				<clipPath id="SVGID_5_">
					<use xlink:href="#SVGID_4_"  style="overflow:visible;"/>
				</clipPath>
				
					<radialGradient id="SVGID_6_" cx="117.3031" cy="178.2837" r="125.4952" fx="116.5368" fy="178.3543" gradientTransform="matrix(1 0 0 -1 0 297.192)" gradientUnits="userSpaceOnUse">
					<stop  offset="0" style="stop-color:#C7EAFB"/>
					<stop  offset="0.2699" style="stop-color:#C7EAFB"/>
					<stop  offset="0.638" style="stop-color:#00AEEF"/>
					<stop  offset="0.6898" style="stop-color:#00A5E4"/>
					<stop  offset="0.7768" style="stop-color:#0095D0"/>
					<stop  offset="0.8883" style="stop-color:#007DAF"/>
					<stop  offset="1" style="stop-color:#00608A"/>
				</radialGradient>
				<path class="st1" d="M214.36,181.97c0,0,6.2-22.51,1.87-40.65c-4.9-20.54-19.02-32.78-32.1-42.29
					c-13.07-9.51-16.75-10.25-16.75-18.05c0-7.81,4.52-10.64,8.66-10.64c4.13,0,9.96,1.52,9.96-1.02c0-2.54-12.96-6.79-19.08-10.35
					c-6.11-3.57-15.05-8.94-15.05-17.49s8.55-10.81,16.64-10.81c8.09,0,14.49,4.7,19.19,8.38c4.7,3.68,8.94,4.98,6.96,1.13
					c-1.98-3.85-26.89-21.06-34.41-24.45c-7.53-3.39-6.79-12.79,2.15-12.79c8.94,0,40.52,14.2,40.52,14.2l39.5,53.49l5.83,73.06
					l-14.49,34.41L214.36,181.97z M138.8,56.24c13.81,0,19.19,12.22,19.19,21.06c0,8.83-12.51,14.2-20.77,14.2
					c-8.27,0-20.32-2.26-20.32-17.21C116.9,63.76,130.82,56.24,138.8,56.24z M115.49,53.41c-20.32,0-26.44-12.56-26.44-19.23
					c0-6.68,13.44-16.03,26.23-16.03c12.79,0,24.94,12.51,24.94,23.04C140.22,47.58,128.02,53.41,115.49,53.41z M73.75,90.47
					c0-8.85,7.69-18.58,16.94-18.58c7.29,0,13.12,5.72,13.12,14.57s-8.02,12.02-16.76,15.12C78.32,104.67,73.75,99.32,73.75,90.47z
					 M70.65,14.69C69.8,11.1,75.57,3.03,86.84,0.74c15.22-3.09,28.82-1.41,29.67,2.18c0.85,3.58-4.84,8.76-19.98,12.17
					C81.38,18.5,71.5,18.27,70.65,14.69z M123.03,8.2c2.27-5.18,8.74-5.06,16.33-2.69c7.45,2.33,9.88,5.97,9.51,8.18
					c-0.66,3.92-3.24,4.3-11.04,2.79C130.02,14.97,121.44,11.85,123.03,8.2z M151.35,24.89c0-1.16,0.58-1.82,2.64-1.82
					c2.06,0,3.73,0.94,3.73,2.1s-1.67,2.1-3.73,2.1C151.93,27.25,151.35,26.04,151.35,24.89z M164.1,65.88c0-1.11,1.1-2,2.46-2
					c1.36,0,2.46,0.9,2.46,2c0,1.11-1.19,1.28-2.55,1.28S164.1,66.98,164.1,65.88z M54.57,125.93c-1.4-4.05,0.59-9.7,4.82-11.16
					c4.23-1.46,6.89,0.55,8.29,4.6c1.39,4.05-0.69,6.41-4.2,9.2C59.97,131.35,55.96,129.98,54.57,125.93z M48.41,93.53
					c-1.9-5.99,0.8-14.36,6.56-16.52c5.76-2.16,9.39,0.81,11.28,6.8c1.9,5.99-0.94,9.49-5.72,13.62
					C55.76,101.55,50.3,99.52,48.41,93.53z M29.04,41.68c-2.04-2.54-0.97-8.07,7.86-15.86s17.63-12.05,19.67-9.51
					c2.04,2.54-0.6,8.47-9.42,16.26C38.33,40.36,31.08,44.22,29.04,41.68z M64.82,59.13c0.08-4.71,3.62-8.63,8.2-8.38
					c4.57,0.25,5.97,2.65,5.88,7.36c-0.08,4.72-2.92,6.27-7.27,7.68C67.29,67.21,64.73,63.85,64.82,59.13z M59.18,47.87
					c5.03,3.5-5.26,15.98-9.67,20.01c-4.74,4.33-27.44,15.46-18.03-4.19C39.11,47.76,54.15,44.37,59.18,47.87z M59.45,39.12
					c-3.94-6.97,1.65-8.97,8-12.84c6.23-3.79,10.36-3.37,11.74-1.82c2.44,2.73,1.69,7.21-4.17,11.72
					C69.17,40.69,61.24,42.28,59.45,39.12z M90.66,55.29c0-1.5,0.7-2.37,3.2-2.37c2.5,0,4.53,1.22,4.53,2.72s-2.03,2.72-4.53,2.72
					C91.36,58.37,90.66,56.79,90.66,55.29z M121.84,56.77c0-1.11,1.1-2,2.46-2c1.36,0,2.46,0.9,2.46,2c0,1.11-1.19,1.28-2.55,1.28
					S121.84,57.87,121.84,56.77z M110.38,90.75c1.19-0.93,2.3-0.9,3.84,1.07c1.54,1.97,1.33,3.92,0.15,4.84
					c-1.19,0.93-2.9,0.48-4.44-1.49C108.39,93.2,109.19,91.68,110.38,90.75z M103.25,74.96c0-1.11,1.1-2,2.46-2
					c1.36,0,1.47,0.77,1.47,1.88c0,1.11-0.99,1.4-1.95,1.4C103.86,76.23,103.25,76.07,103.25,74.96z M56.69,70.73
					c-0.47,1-1.85,1.35-3.08,0.78c-1.23-0.57-1-1.32-0.53-2.32c0.47-1,1.49-0.85,2.36-0.44C56.67,69.32,57.16,69.72,56.69,70.73z
					 M44.19,45.59c-0.37-0.84-0.2-1.5,1.2-2.12c1.4-0.62,2.84-0.44,3.21,0.4c0.37,0.84-0.46,2.03-1.85,2.65
					C45.35,47.14,44.57,46.43,44.19,45.59z M79.23,108.42c1.19-0.93,2.3-0.9,3.84,1.07c1.54,1.97,1.33,3.92,0.15,4.84
					c-1.18,0.93-2.9,0.48-4.44-1.49C77.24,110.87,78.04,109.35,79.23,108.42z M65.1,103.11c1.6-0.08,2.56,0.61,2.7,3.27
					c0.14,2.66-1.23,4.23-2.83,4.32c-1.6,0.08-2.83-1.35-2.96-4.01C61.86,104.03,63.5,103.2,65.1,103.11z M45.41,114.28
					c0-1.11,1.1-2,2.46-2c1.36,0,1.47,0.77,1.47,1.88c0,1.11-0.99,1.4-1.95,1.4C46.02,115.54,45.41,115.38,45.41,114.28z
					 M60.14,153.97c-0.47,1-1.85,1.35-3.08,0.78c-1.23-0.57-1-1.32-0.54-2.32c0.47-1,1.49-0.85,2.36-0.44
					C60.12,152.56,60.61,152.97,60.14,153.97z M52.46,170.64c-0.47,1-1.84,1.35-3.08,0.78c-1.23-0.57-1-1.32-0.53-2.32
					s1.49-0.85,2.36-0.44C52.44,169.23,52.92,169.63,52.46,170.64z M23.58,64.62c-3.04-2.9-1.31-7.39,2.27-12.08
					c3.52-4.6,6.67-5.38,8.12-4.56c2.56,1.46,2.18,3.36-0.86,8.41C30.08,61.46,25.72,66.66,23.58,64.62z M28.1,100
					c-4.69-2.65-3.58-8.18-0.1-14.36c3.41-6.07,7.33-7.66,9.42-7.04c3.71,1.1,3.68,3.36,1.01,9.85C35.76,94.93,31.4,101.86,28.1,100
					z M41.09,108.8c0.33,4.7-2.86,8.91-7.44,9.06c-4.58,0.15-6.18-2.12-6.5-6.82c-0.33-4.7,2.36-6.5,6.57-8.29
					C37.92,100.98,40.77,104.1,41.09,108.8z M31.12,147.12c3.99-3.74,8.31-0.2,10.76,3.6c3.96,6.12,3.72,10.23,2.23,11.66
					c-2.64,2.54-5.59,3.1-10.55-2.39C30.25,156.32,28.2,149.85,31.12,147.12z M38.65,141.33c-3.2-3.82-3.82-10.84-0.33-14.23
					c3.49-3.39,7.01-2.34,10.22,1.49c3.2,3.82,2.22,7.29,0.04,11.83C46.41,144.95,41.85,145.15,38.65,141.33z M14.18,95.75
					c-5.56-1.01-4.8-7.27-1.64-14.57c3.1-7.16,6.97-9.2,9.13-8.6c3.83,1.07,3.94,3.67,1.62,11.28
					C20.96,91.46,18.18,96.48,14.18,95.75z M12.02,60.05c4.59,3.29,3.13,9.6-0.77,16.53c-3.83,6.8-7.9,8.42-9.98,7.6
					c-3.69-1.46-3.53-4.07-0.43-11.38C3.95,65.48,8.79,57.74,12.02,60.05z M16.53,58.63c-0.89-0.67-0.94-2.08-0.12-3.17
					c0.82-1.09,2.2-1.43,3.08-0.76c0.88,0.67,0.3,1.72-0.52,2.8C18.15,58.6,17.41,59.3,16.53,58.63z M18,102.13
					c3.96,0.49,5.08,3.77,4.85,7.05c-0.38,5.3-2.32,7.59-3.82,7.77c-2.65,0.32-4.78-2.02-5.26-7.39
					C13.46,105.96,15.38,101.8,18,102.13z M-0.59,124c-5.55-1.04-6.9-7.38-6.29-15.31c0.6-7.78,3.59-10.97,5.84-11.1
					c3.97-0.24,4.92,2.19,5.2,10.13C4.43,115.67,3.32,124.73-0.59,124z M9.2,103.75c-0.92-0.05-1.42-0.5-1.35-2.03
					c0.08-1.53,0.89-2.73,1.81-2.68c0.92,0.05,1.6,1.33,1.52,2.86C11.11,103.42,10.12,103.8,9.2,103.75z M10.03,115.31
					c1.6-0.08,2.56,0.61,2.7,3.27c0.14,2.66-1.23,4.23-2.83,4.32s-2.83-1.35-2.97-4.01C6.79,116.23,8.43,115.4,10.03,115.31z
					 M21.38,144.3c-4.9,1.98-7.67-3.03-9.12-9.98c-1.42-6.82,0.51-10.23,2.53-10.84c3.57-1.08,5.07,0.79,7.33,7.56
					C24.38,137.8,24.91,142.88,21.38,144.3z M19.5,169.67c1.37-0.82,2.55-0.66,3.92,1.63c1.37,2.28,0.9,4.31-0.47,5.14
					c-1.37,0.82-3.13,0.13-4.5-2.15C17.07,172,18.12,170.5,19.5,169.67z M18.94,154.96c1.67,3.76,3.31,7.43-0.35,8.9
					c-3.66,1.47-5.25-1.68-6.92-5.44s-0.11-6.68,1.72-7.62C16.81,149.05,17.27,151.2,18.94,154.96z M7.71,144.79
					c0.33,4.7-2.86,8.91-7.44,9.06c-4.58,0.15-6.18-2.12-6.5-6.82c-0.33-4.71,2.36-6.5,6.57-8.29
					C4.54,136.97,7.38,140.09,7.71,144.79z M39.82,177.43c-0.81,0.27-1.69-0.51-1.96-1.74c-0.27-1.23,0.28-1.51,1.1-1.78
					c0.82-0.27,1.22,0.56,1.41,1.43C40.63,176.57,40.63,177.16,39.82,177.43z M47.66,196.83c0.72-0.57,1.41-0.55,2.35,0.65
					c0.94,1.21,2.6,3.72,1.88,4.29s-3.56-1.03-4.51-2.23C46.43,198.33,46.93,197.4,47.66,196.83z M29.68,160.82
					c-1.07,0.29-2.22-0.54-2.57-1.86c-0.35-1.31,0.37-1.62,1.44-1.9c1.07-0.29,1.6,0.6,1.85,1.53
					C30.75,159.9,30.75,160.53,29.68,160.82z"/>
			</g>
		</g>
		<path class="st2" d="M632.34,35.15c-2.33,2.34-3.49,5.17-3.49,8.49c0,3.34,1.16,6.19,3.48,8.54c2.33,2.36,5.16,3.53,8.49,3.53
			c3.33,0,6.16-1.18,8.49-3.53c2.33-2.36,3.49-5.2,3.49-8.54c0-3.32-1.16-6.15-3.49-8.49c-2.34-2.35-5.17-3.53-8.49-3.53
			C637.5,31.62,634.68,32.8,632.34,35.15z M650.68,53.54c-2.72,2.74-6.01,4.1-9.87,4.1c-3.86,0-7.15-1.37-9.86-4.1
			c-2.69-2.72-4.04-6.02-4.04-9.89c0-3.84,1.36-7.11,4.08-9.84c2.71-2.71,5.98-4.06,9.82-4.06c3.86,0,7.15,1.35,9.87,4.06
			c2.72,2.71,4.08,5.99,4.09,9.84C654.77,47.51,653.4,50.8,650.68,53.54z M643.43,38.36c-0.67-0.38-1.75-0.57-3.24-0.57h-2.3v5.55
			h2.43c1.14,0,1.99-0.11,2.56-0.34c1.05-0.42,1.58-1.22,1.58-2.39C644.45,39.49,644.11,38.75,643.43,38.36z M640.54,35.95
			c1.9,0,3.29,0.18,4.18,0.55c1.58,0.66,2.37,1.95,2.37,3.87c0,1.37-0.5,2.37-1.5,3.02c-0.53,0.34-1.27,0.59-2.22,0.74
			c1.2,0.19,2.09,0.69,2.64,1.5c0.56,0.81,0.84,1.6,0.84,2.37v1.12c0,0.36,0.01,0.73,0.04,1.14c0.02,0.4,0.07,0.67,0.13,0.8
			l0.1,0.19h-2.53c-0.02-0.05-0.03-0.1-0.04-0.15s-0.02-0.11-0.04-0.17l-0.06-0.49v-1.22c0-1.77-0.48-2.94-1.44-3.51
			c-0.57-0.33-1.57-0.49-3-0.5h-2.12v6.04h-2.7V35.95H640.54z"/>
		<g>
			<g>
				<path class="st3" d="M395.65,183.85c0-8.32-4.91-12.91-11.2-16.11c-10.67-5.55-25.07-7.04-25.07-16
					c0-6.51,3.31-10.77,12.38-10.77c8.11,0,12.8,2.35,12.8,7.79c0,0.85,0.64,1.6,1.6,1.6h4.91c0.86,0,1.6-0.74,1.6-1.6
					c0-10.13-6.51-16-20.91-16c-14.08,0-20.91,8.43-20.91,18.99c0,6.29,2.99,10.35,7.15,13.34c10.56,7.36,29.13,7.79,29.13,18.88
					c0,7.36-4.16,12.8-15.36,12.8c-10.77,0-14.3-3.41-14.3-7.9c0-0.96-0.75-1.71-1.7-1.71h-4.91c-0.85,0-1.6,0.75-1.6,1.71
					c0,9.71,5.76,16.11,22.51,16.11C388.6,204.97,395.65,195.37,395.65,183.85z"/>
				<path class="st3" d="M447.71,167.58c0-10.94-7.36-16.38-22.3-16.38c-7.89,0-13.55,1.92-17.07,5.65
					c-3.73,4.17-5.65,11.26-5.65,21.12c0,10.35,1.81,17.39,5.33,21.34c3.3,3.63,9.07,5.44,17.39,5.44
					c14.83,0,22.19-5.34,22.19-16.11c0-1.07-0.54-1.6-1.6-1.6h-4.91c-1.07,0-1.6,0.53-1.6,1.6c0,5.33-4.69,7.89-14.08,7.89
					c-5.33,0-9.07-1.07-11.09-3.41c-2.13-2.24-3.2-6.61-3.31-13.02c2.99,2.03,7.79,3.09,14.4,3.09
					C440.35,183.21,447.71,177.98,447.71,167.58z M439.6,167.58c0,4.94-4.7,7.41-14.19,7.41c-9.71,0-14.4-1.72-13.98-5.05
					c0.32-3.76,1.6-6.45,3.84-8.06c2.24-1.72,5.55-2.47,10.14-2.47C434.91,159.42,439.6,162.1,439.6,167.58z"/>
				<path class="st3" d="M481.42,153.55c0-0.85-0.75-1.6-1.6-1.6c0,0,3.31,0-7.36,0c-12.38,0-17.39,6.08-17.39,19.95v30.73
					c0,0.85,0.75,1.6,1.6,1.6h5.01c0.86,0,1.6-0.75,1.6-1.6V171.9c0-7.36,1.82-11.74,9.17-11.74c5.02,0,7.36,0,7.36,0
					s1.6-0.75,1.6-1.71L481.42,153.55L481.42,153.55z"/>
				<path class="st3" d="M530.6,155.15c0.32-0.85-0.11-1.71-0.96-2.03l-4.69-1.71c-0.85-0.32-1.81,0.1-2.14,0.96l-14.51,40.11
					l-14.4-40.11c-0.32-0.85-1.28-1.28-2.13-0.96l-4.69,1.71c-0.85,0.32-1.28,1.17-0.96,2.03l18.14,48.01
					c0.21,0.64,0.85,1.07,1.6,1.07h4.91c0.75,0,1.39-0.43,1.6-1.07L530.6,155.15z"/>
				<path class="st3" d="M549.38,135.09c0-0.85-0.74-1.6-1.6-1.6h-8.96c-0.85,0-1.6,0.74-1.6,1.6v9.82c0,0.96,0.75,1.6,1.6,1.6h8.96
					c0.86,0,1.6-0.64,1.6-1.6V135.09z M556.21,197.61c0-0.85-0.75-1.6-1.6-1.6h-1.28c-5.44,0-7.9-2.88-7.9-11.74v-30.73
					c0-0.85-0.75-1.6-1.6-1.6h-5.02c-0.85,0-1.6,0.75-1.6,1.6v30.73c0,13.87,4.16,19.95,17.39,19.95c0.85,0,1.6-0.75,1.6-1.6
					L556.21,197.61L556.21,197.61z"/>
				<path class="st3" d="M604,188.76c0-0.85-0.74-1.6-1.6-1.6h-4.91c-0.96,0-1.71,0.75-1.71,1.6c0,4.48-3.09,7.89-13.87,7.89
					c-11.2,0-14.62-5.55-14.62-18.99c0-13.76,4.38-18.03,14.93-18.03c8.11,0,12.81,2.03,12.81,7.47c0,0.96,0.74,1.71,1.6,1.71h4.91
					c0.85,0,1.6-0.75,1.6-1.71c0-10.03-6.51-15.68-20.91-15.68c-15.36,0-23.15,6.93-23.15,26.24c0,18.78,6.61,27.2,22.83,27.2
					C598.57,204.86,604,198.46,604,188.76z"/>
				<path class="st3" d="M655.74,167.58c0-10.94-7.36-16.38-22.3-16.38c-7.9,0-13.55,1.92-17.07,5.65
					c-3.73,4.17-5.65,11.26-5.65,21.12c0,10.35,1.81,17.39,5.34,21.34c3.31,3.63,9.07,5.44,17.39,5.44
					c14.83,0,22.19-5.34,22.19-16.11c0-1.07-0.54-1.6-1.6-1.6h-4.91c-1.06,0-1.6,0.53-1.6,1.6c0,5.33-4.7,7.89-14.08,7.89
					c-5.33,0-9.07-1.07-11.1-3.41c-2.14-2.24-3.2-6.61-3.31-13.02c2.99,2.03,7.79,3.09,14.4,3.09
					C648.38,183.21,655.74,177.98,655.74,167.58z M647.64,167.58c0,4.94-4.7,7.41-14.19,7.41c-9.71,0-14.4-1.72-13.97-5.05
					c0.32-3.76,1.6-6.45,3.84-8.06c2.24-1.72,5.55-2.47,10.14-2.47C642.94,159.42,647.64,162.1,647.64,167.58z"/>
			</g>
			<g>
				<path class="st3" d="M377.51,40.89c-0.21-0.64-0.85-1.07-1.6-1.07H371c-0.75,0-1.39,0.43-1.6,1.07L347,107.67
					c-0.32,0.85,0.1,1.71,0.96,2.03l4.69,1.71c0.86,0.32,1.82-0.11,2.14-0.96l3.63-11.31h30.3l3.73,11.31
					c0.32,0.85,1.28,1.28,2.13,0.96l4.69-1.71c0.86-0.32,1.29-1.17,0.96-2.03L377.51,40.89z M361.08,90.92l12.38-37.87l12.48,37.87
					H361.08z"/>
				<path class="st3" d="M454.54,128.69c0.64-0.64,0.64-1.6,0-2.24c-3.63-3.31-5.66-6.4-5.76-9.07V84.47
					c0-19.58-4.59-26.83-22.73-26.83c-18.14,0-22.83,6.19-22.83,26.83c0,20.11,4.69,26.73,22.83,26.73c6.4,0,12.16-1.28,14.51-4.59
					v10.78c0,7.68,5.01,11.84,8.21,14.83c0.64,0.64,1.6,0.64,2.24,0L454.54,128.69z M440.56,84.47c0,14.55-2.99,18.62-14.51,18.62
					c-11.84,0-14.62-4.39-14.62-18.62c0-14.55,2.77-18.62,14.62-18.62C437.79,65.85,440.56,70.02,440.56,84.47z"/>
				<path class="st3" d="M502.23,59.98c0-0.85-0.64-1.6-1.6-1.6h-4.91c-0.85,0-1.6,0.75-1.6,1.6v24.86
					c0,11.42-2.02,18.24-14.61,18.24c-12.27,0-14.62-5.44-14.62-18.67V59.98c0-0.85-0.75-1.6-1.6-1.6h-4.9
					c-0.96,0-1.71,0.75-1.71,1.6v24.43c0,19.21,5.86,26.88,22.83,26.88c16.22,0,22.73-8.11,22.73-26.46L502.23,59.98L502.23,59.98z"
					/>
				<path class="st3" d="M554.93,75.13c0-10.14-8.21-17.28-22.3-17.28c-14.51,0-20.16,4.69-20.16,14.72c0,0.96,0.75,1.71,1.6,1.71
					h5.01c0.85,0,1.6-0.75,1.6-1.71c0-5.44,3.73-6.51,11.95-6.51c9.28,0,14.08,3.63,14.08,9.07v6.4c-3.52-3.1-9.17-4.48-14.51-4.48
					c-17.18,0-22.83,5.55-22.83,16.64c0,12.91,5.44,17.6,22.83,17.6c16.54,0,22.72-5.76,22.72-20.59L554.93,75.13L554.93,75.13z
					 M546.72,92.63c0,7.36-2.99,10.46-14.51,10.46c-11.95,0-14.61-3.41-14.61-9.39c0-5.44,3.2-9.28,14.61-9.28
					C543.3,84.41,546.72,87.61,546.72,92.63z"/>
			</g>
		</g>
		<line class="st4" x1="291.28" y1="217.02" x2="291.28" y2="24.62"/>
	</g>
</g>
<g>
	<path class="st5" d="M304.9,238.36c1.7-0.41,4.38-0.73,7.11-0.73c3.89,0,6.39,0.78,8.27,2.54c1.56,1.35,2.5,3.42,2.5,6.17
		c0,3.37-1.92,6.32-5.1,7.67v0.1c2.86,0.83,6.21,3.58,6.21,8.76c0,3.01-1.03,5.29-2.55,7c-2.1,2.23-5.5,3.27-10.42,3.27
		c-2.68,0-4.74-0.21-6.03-0.42V238.36z M308.79,252.67h3.53c4.11,0,6.53-2.49,6.53-5.86c0-4.09-2.68-5.7-6.62-5.7
		c-1.79,0-2.82,0.16-3.44,0.31V252.67z M308.79,269.41c0.76,0.16,1.88,0.21,3.26,0.21c4.02,0,7.73-1.71,7.73-6.79
		c0-4.77-3.53-6.74-7.78-6.74h-3.22V269.41z"/>
	<path class="st6" d="M339.11,272.83l0.22-0.88c-0.69,0.59-1.54,0.88-2.55,0.88c-1.1,0-1.97-0.42-2.61-1.27
		c-0.64-0.85-1.27-2.41-1.9-4.69l-5.14-19.33h1.56l5.41,20.37c0.36,1.31,0.75,2.19,1.18,2.64c0.43,0.45,1.08,0.67,1.95,0.67
		c0.86,0,1.53-0.23,2.01-0.7c0.48-0.47,0.85-1.34,1.12-2.62l4.52-20.37h1.56l-5.77,25.29c-0.36,1.55-0.75,2.91-1.19,4.07
		c-0.43,1.16-0.98,2.26-1.65,3.32c-0.67,1.05-1.52,1.84-2.55,2.36c-1.03,0.52-2.21,0.73-3.55,0.62l-0.36-1.71
		c2.2,0.17,3.85-0.47,4.94-1.92C337.4,278.12,338.33,275.87,339.11,272.83z"/>
	<path class="st6" d="M363.97,239.14l4.47,29.18c0.18,1.24,0.49,2.09,0.94,2.54c0.45,0.45,1.03,0.67,1.74,0.67
		c0.72,0,1.28-0.22,1.7-0.67c0.42-0.45,0.72-1.3,0.89-2.54l3.93-24.77c0.27-1.59,0.63-2.72,1.1-3.39c0.46-0.67,1.17-1.01,2.12-1.01
		c0.95,0,1.66,0.34,2.12,1.01c0.46,0.67,0.83,1.81,1.1,3.39l3.93,24.77c0.18,1.24,0.48,2.09,0.89,2.54c0.42,0.45,0.98,0.67,1.7,0.67
		c0.72,0,1.3-0.22,1.74-0.67c0.45-0.45,0.76-1.3,0.94-2.54l4.47-29.18h1.61l-4.43,29.07c-0.3,1.9-0.8,3.21-1.5,3.94
		c-0.7,0.73-1.65,1.09-2.84,1.09s-2.12-0.36-2.79-1.09c-0.67-0.73-1.16-2.04-1.45-3.94l-3.89-24.72c-0.18-1.14-0.38-1.89-0.6-2.25
		c-0.22-0.36-0.56-0.54-1.01-0.54c-0.45,0-0.78,0.18-1.01,0.54c-0.22,0.36-0.43,1.11-0.6,2.25l-3.89,24.72
		c-0.3,1.9-0.78,3.21-1.45,3.94s-1.6,1.09-2.79,1.09c-1.19,0-2.14-0.36-2.84-1.09c-0.7-0.73-1.2-2.04-1.5-3.94l-4.43-29.07H363.97z"
		/>
	<path class="st6" d="M418.16,254.64v10.52c0,2.97-0.71,5.06-2.15,6.27c-1.43,1.21-3.73,1.81-6.89,1.81c-2.06,0-3.82-0.58-5.3-1.74
		c-1.48-1.16-2.21-3.05-2.21-5.68c0-2.59,0.73-4.45,2.19-5.57c1.46-1.12,3.78-1.69,6.98-1.69h5.81v-3.94c0-3.91-2.13-5.86-6.39-5.86
		c-2,0-3.5,0.49-4.52,1.45c-1.01,0.97-1.52,2.63-1.52,4.98h-1.43c0-5.39,2.49-8.09,7.47-8.09
		C415.51,247.12,418.16,249.63,418.16,254.64z M416.6,265.16v-5.03h-5.63c-2.71,0-4.69,0.41-5.92,1.24
		c-1.24,0.83-1.86,2.33-1.86,4.51c0,2,0.56,3.45,1.68,4.33c1.12,0.88,2.53,1.32,4.22,1.32c2.68,0,4.61-0.45,5.77-1.35
		C416.02,269.29,416.6,267.61,416.6,265.16z"/>
	<path class="st6" d="M421.29,249.25v-1.35l4.34-0.36l0.31-6.74h1.25v6.74h8.14v1.71h-8.14v15.29c0,2.59,0.4,4.41,1.19,5.44
		c0.79,1.04,1.97,1.55,3.55,1.55c1.31,0,2.46-0.26,3.44-0.78v1.71c-0.89,0.52-2.09,0.78-3.58,0.78c-2,0-3.52-0.66-4.58-1.97
		c-1.06-1.31-1.59-3.56-1.59-6.74v-15.29H421.29z"/>
	<path class="st6" d="M457.11,256.87c0,1.62-0.06,2.97-0.18,4.04h-15.65v2.13c0,3.11,0.6,5.31,1.79,6.61
		c1.19,1.3,3.08,1.94,5.68,1.94c2.35,0,4.07-0.53,5.14-1.58c1.07-1.05,1.61-2.76,1.61-5.11h1.52c0,5.56-2.76,8.34-8.27,8.34
		c-3.04,0-5.31-0.81-6.82-2.44c-1.51-1.62-2.26-4.3-2.26-8.03v-5.29c0-6.91,2.92-10.37,8.76-10.37c2.74,0,4.87,0.81,6.39,2.44
		C456.35,251.18,457.11,253.62,457.11,256.87z M441.28,256.81v2.49h14.35v-2.49c0-5.36-2.4-8.03-7.2-8.03
		C443.66,248.78,441.28,251.46,441.28,256.81z"/>
	<path class="st6" d="M463.95,255.72v17.1h-1.56v-17.1c0-5.73,2.16-8.6,6.48-8.6c0.95,0,1.88,0.12,2.77,0.36v1.81
		c-0.86-0.31-1.79-0.47-2.77-0.47c-1.82,0-3.09,0.57-3.82,1.71C464.31,251.68,463.95,253.41,463.95,255.72z"/>
	<path class="st6" d="M473.69,262.83v-5.29c0-3.42,0.67-6.01,2.01-7.77c1.34-1.76,3.56-2.64,6.66-2.64c2.95,0,5.13,0.75,6.55,2.26
		c1.41,1.5,2.12,3.89,2.12,7.18h-1.57c0-2.83-0.55-4.82-1.65-5.96c-1.1-1.14-2.92-1.71-5.45-1.71c-2.71,0-4.57,0.73-5.57,2.18
		c-1,1.45-1.5,3.61-1.5,6.48v5.24c0,3.18,0.56,5.43,1.68,6.76c1.12,1.33,2.91,1.99,5.39,1.99c2.5,0,4.31-0.58,5.43-1.74
		c1.12-1.16,1.68-3.15,1.68-5.98h1.57c0,3.32-0.71,5.72-2.12,7.2c-1.42,1.49-3.6,2.23-6.55,2.23c-2.92,0-5.1-0.83-6.53-2.49
		C474.41,269.1,473.69,266.45,473.69,262.83z"/>
	<path class="st6" d="M511.83,254.64v10.52c0,2.97-0.71,5.06-2.15,6.27c-1.43,1.21-3.73,1.81-6.89,1.81c-2.06,0-3.82-0.58-5.3-1.74
		c-1.48-1.16-2.21-3.05-2.21-5.68c0-2.59,0.73-4.45,2.19-5.57c1.46-1.12,3.78-1.69,6.98-1.69h5.81v-3.94c0-3.91-2.13-5.86-6.39-5.86
		c-2,0-3.5,0.49-4.52,1.45c-1.01,0.97-1.52,2.63-1.52,4.98h-1.43c0-5.39,2.49-8.09,7.47-8.09
		C509.18,247.12,511.83,249.63,511.83,254.64z M510.27,265.16v-5.03h-5.63c-2.71,0-4.69,0.41-5.92,1.24
		c-1.24,0.83-1.86,2.33-1.86,4.51c0,2,0.56,3.45,1.68,4.33c1.12,0.88,2.53,1.32,4.22,1.32c2.68,0,4.61-0.45,5.77-1.35
		C509.69,269.29,510.27,267.61,510.27,265.16z"/>
	<path class="st6" d="M518.86,255.72v17.1h-1.56v-17.1c0-5.73,2.16-8.6,6.48-8.6c0.95,0,1.88,0.12,2.77,0.36v1.81
		c-0.86-0.31-1.79-0.47-2.77-0.47c-1.82,0-3.09,0.57-3.82,1.71C519.22,251.68,518.86,253.41,518.86,255.72z"/>
	<path class="st6" d="M546.04,256.87c0,1.62-0.06,2.97-0.18,4.04h-15.65v2.13c0,3.11,0.6,5.31,1.79,6.61
		c1.19,1.3,3.09,1.94,5.68,1.94c2.35,0,4.07-0.53,5.14-1.58c1.07-1.05,1.61-2.76,1.61-5.11h1.52c0,5.56-2.76,8.34-8.27,8.34
		c-3.04,0-5.31-0.81-6.82-2.44c-1.51-1.62-2.26-4.3-2.26-8.03v-5.29c0-6.91,2.92-10.37,8.77-10.37c2.74,0,4.87,0.81,6.39,2.44
		C545.28,251.18,546.04,253.62,546.04,256.87z M530.21,256.81v2.49h14.35v-2.49c0-5.36-2.4-8.03-7.2-8.03
		C532.6,248.78,530.21,251.46,530.21,256.81z"/>
	<path class="st5" d="M588.11,271.27c-1.74,0.73-5.19,1.92-9.25,1.92c-4.56,0-8.31-1.35-11.26-4.61c-2.59-2.9-4.2-7.57-4.2-13.01
		c0.05-10.42,6.21-18.03,16.32-18.03c3.49,0,6.21,0.88,7.51,1.61l-0.94,3.68c-1.61-0.83-3.62-1.5-6.66-1.5
		c-7.33,0-12.11,5.29-12.11,14.05c0,8.86,4.6,14.1,11.62,14.1c2.55,0,4.29-0.41,5.19-0.93v-10.42h-6.13v-3.63h9.92V271.27z"/>
	<path class="st6" d="M595.18,255.72v17.1h-1.57v-17.1c0-5.73,2.16-8.6,6.48-8.6c0.95,0,1.88,0.12,2.77,0.36v1.81
		c-0.86-0.31-1.79-0.47-2.77-0.47c-1.82,0-3.09,0.57-3.82,1.71C595.54,251.68,595.18,253.41,595.18,255.72z"/>
	<path class="st6" d="M621.18,270.55c-1.39,1.8-3.75,2.69-7.09,2.69c-3.34,0-5.7-0.9-7.09-2.69c-1.39-1.8-2.08-4.37-2.08-7.72v-5.29
		c0-3.35,0.69-5.93,2.08-7.72c1.39-1.8,3.75-2.7,7.09-2.7c3.34,0,5.7,0.9,7.09,2.7c1.39,1.8,2.08,4.37,2.08,7.72v5.29
		C623.26,266.18,622.57,268.75,621.18,270.55z M608.15,269.43c1.1,1.4,3.08,2.1,5.95,2.1c2.86,0,4.84-0.7,5.95-2.1
		c1.1-1.4,1.65-3.6,1.65-6.61v-5.29c0-3.01-0.55-5.21-1.65-6.61c-1.1-1.4-3.09-2.1-5.95-2.1c-2.86,0-4.85,0.7-5.95,2.1
		c-1.1,1.4-1.66,3.6-1.66,6.61v5.29C606.49,265.83,607.04,268.03,608.15,269.43z"/>
	<path class="st6" d="M629.83,247.54v16.58c0,2.49,0.53,4.34,1.59,5.57c1.06,1.23,2.91,1.84,5.57,1.84s4.51-0.61,5.57-1.84
		c1.06-1.23,1.59-3.08,1.59-5.57v-16.58h1.56v16.58c0,2.9-0.66,5.15-1.99,6.74c-1.33,1.59-3.57,2.38-6.73,2.38
		c-3.16,0-5.4-0.79-6.73-2.38c-1.33-1.59-1.99-3.84-1.99-6.74v-16.58H629.83z"/>
	<path class="st6" d="M651.61,283.19v-25.65c0-3.35,0.69-5.93,2.08-7.72c1.39-1.8,3.75-2.7,7.09-2.7c3.34,0,5.7,0.9,7.09,2.7
		c1.39,1.8,2.08,4.37,2.08,7.72v5.29c0,3.35-0.69,5.93-2.08,7.72c-1.39,1.8-3.75,2.69-7.09,2.69c-3.93,0-6.47-1.47-7.6-4.41v14.36
		H651.61z M654.83,269.43c1.1,1.4,3.08,2.1,5.95,2.1c2.86,0,4.84-0.7,5.95-2.1c1.1-1.4,1.65-3.6,1.65-6.61v-5.29
		c0-3.01-0.55-5.21-1.65-6.61c-1.1-1.4-3.09-2.1-5.95-2.1c-2.86,0-4.85,0.7-5.95,2.1c-1.1,1.4-1.66,3.6-1.66,6.61v5.29
		C653.17,265.83,653.72,268.03,654.83,269.43z"/>
</g>
</svg>
